<svg width="311" height="310" viewBox="0 0 311 310" fill="none" xmlns="http://www.w3.org/2000/svg">
<path d="M183.691 0.724653C183.732 -0.0855647 182.583 -0.288144 182.344 0.487129L87.3764 308.705C87.1782 309.348 87.6591 309.999 88.332 309.999H167.208C167.741 309.999 168.18 309.582 168.207 309.05L183.691 0.724653Z" fill="#FFB800"/>
<path d="M176.222 308.95C176.193 309.521 176.649 310 177.221 310H186.329C186.814 310 187.229 309.652 187.314 309.174L224.102 100.536C224.238 99.7661 223.19 99.4006 222.817 100.088L183.668 172.388C183.241 173.176 182.997 174.049 182.952 174.944L176.222 308.95Z" fill="#FFA800"/>
</svg>
