<svg width="129" height="128" viewBox="0 0 129 128" fill="none" xmlns="http://www.w3.org/2000/svg">
<g clip-path="url(#clip0_150_310)">
<path d="M74.6671 0.299212C74.6839 -0.03533 74.2095 -0.118976 74.1109 0.201137L34.8534 127.612C34.794 127.805 34.9382 128 35.1401 128H67.9686C68.1284 128 68.2602 127.875 68.2682 127.715L74.6671 0.299212Z" fill="#FFB800"/>
<path d="M74.2773 127.685C74.2687 127.857 74.4053 128 74.5769 128H77.8511C77.9967 128 78.1213 127.896 78.1466 127.752L93.3531 41.5118C93.4092 41.1939 92.9763 41.043 92.8226 41.3269L77.3778 69.8499C77.2356 70.1125 77.154 70.4036 77.139 70.7019L74.2773 127.685Z" fill="#FFA800"/>
</g>
<defs>
<clipPath id="clip0_150_310">
<rect width="128" height="128" fill="white" transform="translate(0.0458984)"/>
</clipPath>
</defs>
</svg>
