<svg width="33" height="32" viewBox="0 0 33 32" fill="none" xmlns="http://www.w3.org/2000/svg">
<path d="M18.4512 0.074803C18.4554 -0.0088325 18.3368 -0.0297439 18.3122 0.0502843L8.50778 31.8705C8.48796 31.9348 8.53605 32 8.60335 32H16.7528C16.8061 32 16.85 31.9582 16.8527 31.905L18.4512 0.074803Z" fill="#FFB800"/>
<path d="M19.857 31.8948C19.8541 31.9519 19.8996 31.9998 19.9568 31.9998H21.5153C21.5638 31.9998 21.6053 31.965 21.6137 31.9172L25.4117 10.3777C25.4257 10.2982 25.3175 10.2605 25.2791 10.3315L20.5503 19.0645C20.5147 19.1302 20.4943 19.2029 20.4906 19.2775L19.857 31.8948Z" fill="#FFA800"/>
</svg>
