<svg width="66" height="31" viewBox="0 0 66 31" fill="none" xmlns="http://www.w3.org/2000/svg">
<path d="M28.9791 13.8047C28.9542 14.3648 28.9106 14.9437 28.8484 15.5411C28.7861 16.1386 28.7052 16.6988 28.6056 17.2216H27.8401L26.9812 15.0183H23.4897V19.5928H25.7676L26.5891 18.1551H27.1866C27.2489 18.7651 27.28 19.4435 27.28 20.1903C27.28 20.9372 27.2489 21.6342 27.1866 22.2815H26.5891L25.7676 20.8065H23.4897V25.661H27.1306L28.1202 23.2898H28.8857C28.9355 23.5263 28.9853 23.7939 29.0351 24.0926C29.0849 24.3914 29.1222 24.7026 29.1471 25.0262C29.1845 25.3374 29.2094 25.6548 29.2218 25.9784C29.2467 26.3021 29.2591 26.6008 29.2591 26.8747H19.1579V26.1652C19.3695 26.0531 19.606 25.9473 19.8674 25.8477C20.1288 25.7482 20.4027 25.6735 20.689 25.6237V15.0557C20.44 15.0059 20.1724 14.9374 19.8861 14.8503C19.6123 14.7507 19.3695 14.6387 19.1579 14.5142V13.8047H28.9791Z" fill="#302D2B"/>
<path d="M34.8889 17.3149C35.698 17.3149 36.3701 17.4021 36.9054 17.5763C37.4406 17.7381 37.8452 17.9435 38.119 18.1925C38.704 17.5577 39.3762 17.1158 40.1355 16.8668C40.2227 16.9291 40.3098 17.0224 40.3969 17.1469C40.4841 17.2589 40.5587 17.3834 40.621 17.5203C40.6832 17.6572 40.733 17.7942 40.7704 17.9311C40.8077 18.068 40.8264 18.18 40.8264 18.2672L40.5836 18.7153H38.6231C38.7601 18.8895 38.8845 19.1198 38.9966 19.4061C39.121 19.68 39.1833 20.0098 39.1833 20.3957C39.1833 20.8065 39.0961 21.1924 38.9219 21.5533C38.7476 21.9143 38.48 22.2379 38.119 22.5242C37.7705 22.7981 37.3224 23.0159 36.7747 23.1777C36.2394 23.3396 35.6108 23.4205 34.8889 23.4205C34.6773 23.4205 34.4843 23.4205 34.3101 23.4205C34.1482 23.408 34.0051 23.3893 33.8806 23.3645C33.8308 23.4391 33.7748 23.5325 33.7126 23.6445C33.6628 23.7441 33.6379 23.8437 33.6379 23.9433C33.6379 24.1549 33.7873 24.3229 34.086 24.4474C34.3847 24.5719 34.7644 24.6839 35.2249 24.7835C35.6855 24.8831 36.1772 24.9951 36.7 25.1196C37.2352 25.244 37.7331 25.4121 38.1937 25.6237C38.6543 25.8229 39.0401 26.0905 39.3513 26.4266C39.6625 26.7502 39.8243 27.1734 39.8368 27.6962C39.8492 28.1941 39.7248 28.636 39.4634 29.0219C39.202 29.4078 38.841 29.7314 38.3804 29.9928C37.9323 30.2666 37.3971 30.472 36.7747 30.6089C36.1647 30.7583 35.5112 30.833 34.8142 30.833C33.9926 30.833 33.2893 30.7645 32.7043 30.6276C32.1317 30.5031 31.6649 30.3289 31.304 30.1048C30.943 29.8808 30.6754 29.6256 30.5011 29.3393C30.3393 29.053 30.2584 28.7543 30.2584 28.4431C30.2584 28.0945 30.3268 27.7958 30.4637 27.5468C30.6007 27.2979 30.7936 27.0801 31.0426 26.8933C31.2915 26.7066 31.5778 26.551 31.9014 26.4266C32.2375 26.3021 32.6047 26.1901 33.0031 26.0905C32.8163 26.0407 32.6358 25.9784 32.4616 25.9038C32.2873 25.8291 32.1317 25.7419 31.9948 25.6424C31.8579 25.5303 31.7458 25.4059 31.6587 25.2689C31.5716 25.1196 31.528 24.9515 31.528 24.7648C31.528 24.603 31.5778 24.4474 31.6774 24.298C31.777 24.1362 31.9077 23.9931 32.0695 23.8686C32.2313 23.7317 32.4056 23.6134 32.5923 23.5138C32.779 23.4018 32.9657 23.3084 33.1524 23.2338C32.3682 23.0595 31.7458 22.7234 31.2853 22.2255C30.8247 21.7151 30.5944 21.0679 30.5944 20.2837C30.5944 19.3501 30.9803 18.6219 31.7521 18.0991C32.5238 17.5763 33.5694 17.3149 34.8889 17.3149ZM37.2415 28.2937C37.2415 27.9576 37.1357 27.6838 36.924 27.4722C36.7249 27.273 36.4635 27.105 36.1398 26.968C35.8162 26.8436 35.449 26.7378 35.0382 26.6506C34.6399 26.551 34.2416 26.439 33.8433 26.3145C33.5196 26.5635 33.2893 26.8124 33.1524 27.0614C33.0155 27.3103 32.947 27.6091 32.947 27.9576C32.947 28.5302 33.14 28.9721 33.5259 29.2833C33.9242 29.6069 34.4781 29.7687 35.1876 29.7687C35.8847 29.7687 36.4012 29.6194 36.7373 29.3206C37.0734 29.0343 37.2415 28.692 37.2415 28.2937ZM33.2831 20.377C33.2831 21.0243 33.3889 21.516 33.6005 21.8521C33.8246 22.1882 34.254 22.3562 34.8889 22.3562C35.4988 22.3562 35.9158 22.1882 36.1398 21.8521C36.3764 21.5035 36.4946 21.0119 36.4946 20.377C36.4946 19.7049 36.3764 19.207 36.1398 18.8833C35.9033 18.5472 35.4863 18.3792 34.8889 18.3792C34.2665 18.3792 33.8433 18.541 33.6192 18.8647C33.3952 19.1883 33.2831 19.6924 33.2831 20.377Z" fill="#302D2B"/>
<path d="M45.8201 19.6862C45.6707 19.7609 45.4964 19.8854 45.2973 20.0596C45.0981 20.2339 44.9176 20.5202 44.7558 20.9185V25.6984C45.0048 25.7233 45.2537 25.7731 45.5027 25.8477C45.7516 25.91 46.0006 26.0096 46.2495 26.1465V26.8747H40.8348V26.1465C41.0589 26.022 41.2705 25.9287 41.4696 25.8664C41.6688 25.8042 41.868 25.7482 42.0671 25.6984V18.8647L40.8348 18.7153V17.9871C41.034 17.9 41.2767 17.8191 41.563 17.7444C41.8617 17.6697 42.1667 17.6074 42.4779 17.5577C42.7891 17.4954 43.0878 17.4456 43.3741 17.4083C43.6729 17.3709 43.9218 17.3398 44.121 17.3149H44.7558V19.7982H44.8305C44.9301 19.5244 45.0732 19.2381 45.2599 18.9393C45.4591 18.6406 45.6894 18.3667 45.9508 18.1178C46.2122 17.8688 46.4985 17.6697 46.8097 17.5203C47.1209 17.3709 47.4445 17.3025 47.7806 17.3149C47.9175 17.4892 48.0358 17.7381 48.1353 18.0618C48.2349 18.373 48.3158 18.6717 48.3781 18.958V19.6862H45.8201Z" fill="#302D2B"/>
<path d="M57.4274 25.3063C57.3278 25.5179 57.166 25.7357 56.942 25.9598C56.7303 26.1714 56.4627 26.3643 56.1391 26.5386C55.8279 26.7004 55.4607 26.8311 55.0375 26.9307C54.6267 27.0427 54.1786 27.0987 53.6931 27.0987C52.9214 27.0987 52.2368 26.9867 51.6393 26.7626C51.0418 26.5261 50.5439 26.1963 50.1456 25.7731C49.7472 25.3374 49.4423 24.8208 49.2307 24.2233C49.0315 23.6259 48.9319 22.9537 48.9319 22.2068C48.9319 20.6135 49.3489 19.3999 50.1829 18.5659C51.0169 17.7319 52.1745 17.3149 53.6558 17.3149C54.2906 17.3149 54.8819 17.4021 55.4296 17.5763C55.9897 17.7506 56.4503 18.0369 56.8113 18.4352C57.1847 18.8335 57.4399 19.3563 57.5768 20.0036C57.7262 20.6509 57.7199 21.4413 57.5581 22.3749H51.826C51.8384 23.3582 52.0874 24.1424 52.5728 24.7275C53.0708 25.3125 53.7989 25.605 54.7574 25.605C55.1682 25.605 55.5914 25.5428 56.0271 25.4183C56.4752 25.2938 56.8237 25.132 57.0727 24.9328L57.4274 25.3063ZM53.5811 18.3792C53.3322 18.3792 53.1081 18.4228 52.9089 18.5099C52.7222 18.597 52.5542 18.7588 52.4048 18.9954C52.2679 19.2194 52.1559 19.5306 52.0687 19.9289C51.9816 20.3148 51.9193 20.8065 51.882 21.404H54.8881C54.9752 20.433 54.9192 19.6862 54.7201 19.1634C54.5209 18.6406 54.1412 18.3792 53.5811 18.3792Z" fill="#302D2B"/>
<path d="M58.4377 17.9871C58.9107 17.6884 59.4086 17.4767 59.9314 17.3523V15.8399C60.031 15.7652 60.2737 15.6594 60.6596 15.5225C61.0579 15.3731 61.4998 15.2548 61.9853 15.1677H62.6201V17.539H65.0847V18.7153H62.6201V23.5512C62.6201 24.3229 62.7134 24.8582 62.9002 25.1569C63.0993 25.4556 63.423 25.605 63.8711 25.605C64.0951 25.605 64.3441 25.5926 64.6179 25.5677C64.9042 25.5303 65.1656 25.4681 65.4021 25.381L65.5328 25.9971C65.4208 26.1091 65.2528 26.2274 65.0287 26.3519C64.8171 26.4764 64.5681 26.5946 64.2819 26.7066C64.008 26.8187 63.703 26.912 63.367 26.9867C63.0433 27.0614 62.701 27.0987 62.34 27.0987C61.5309 27.0987 60.9272 26.8871 60.5289 26.4639C60.1306 26.0407 59.9314 25.3561 59.9314 24.4101V18.7153H58.4377V17.9871Z" fill="#302D2B"/>
<path d="M8.10285 0.893883C8.10627 0.82582 8.00977 0.808802 7.98971 0.873929L0.00275133 26.7957C-0.00935398 26.835 0.0200034 26.8747 0.0610801 26.8747H6.74006C6.77257 26.8747 6.79938 26.8492 6.80101 26.8167L8.10285 0.893883Z" fill="#FFB800"/>
<path d="M8.02357 26.8107C8.02182 26.8457 8.04961 26.8748 8.08453 26.8748H8.75066C8.78028 26.8748 8.80564 26.8536 8.81076 26.8243L11.9046 9.2787C11.9159 9.21402 11.8279 9.18332 11.7966 9.24108L8.65435 15.0441C8.62542 15.0975 8.60884 15.1568 8.60579 15.2174L8.02357 26.8107Z" fill="#FFA800"/>
</svg>
